<svg xmlns="http://www.w3.org/2000/svg" data-name="1" width="226" height="34" style=""><rect id="backgroundrect" width="100%" height="100%" x="0" y="0" fill="none" stroke="none" class="" style=""/><defs><style>.cls-1,.cls-2{fill:#1d191a;}.cls-1,.cls-3{fill-rule:evenodd;}.cls-3{fill:#bf2b29;}</style></defs><title>Logo-colour</title><g class="currentLayer" style=""><title>Layer 1</title><path class="cls-1" d="M34.3800001001358,20.759999485015868 c0,-2.15 0,-3.55 1,-4.92 c1.11,-1.71 2.54,-1.8900000000000001 4.68,-1.8900000000000001 s3.54,0.18000000000000005 4.69,1.8900000000000001 c1,1.44 1,2.66 1,4.92 c0,2.08 0,3.52 -1,4.93 C43.5600001001358,27.38999948501587 42.2000001001358,27.53999948501587 40.0200001001358,27.53999948501587 s-3.5700000000000003,-0.19000000000000006 -4.68,-1.8900000000000001 c-0.8500000000000002,-1.3 -1,-2.89 -1,-4.93 zm5.6400000000000015,-13.36 c-3.91,0 -8.52,0.11000000000000003 -11.28,2.66 s-2.92,7.12 -2.92,10.6 s0.11000000000000003,8 2.92,10.59 s7.45,2.67 11.28,2.67 s8.56,-0.11000000000000003 11.29,-2.67 s2.91,-7.18 2.91,-10.59 s-0.11000000000000003,-8 -2.91,-10.6 S43.9300001001358,7.399999485015869 40.0200001001358,7.399999485015869 z" id="svg_1"/><polygon class="cls-1" points="28.510001301765442,33.91999959945679 16.499999165534973,20.619998455047607 27.15000069141388,7.989999294281006 17.25999939441681,7.989999294281006 7.339999318122864,20.660001277923584 18.4799987077713,33.91999959945679 28.510001301765442,33.91999959945679 " id="svg_2"/><rect class="cls-2" x="1.1920928955078125e-7" y="7.989999294281006" width="8.34000015258789" height="25.93000030517578" id="svg_3"/><path class="cls-1" d="M52.6400001001358,33.91999948501588 h8.86 l6.63,-17.67 L74.7700001001358,33.91999948501588 h8.85 L73.70000010013581,10.35999948501587 c-1.07,-2.52 -3.16,-2.67 -5.57,-2.67 s-4.5,0.15000000000000005 -5.5600000000000005,2.67 z" id="svg_4"/><path class="cls-1" d="M130.7700001001358,33.91999948501588 V27.46999948501587 h-7.15 c-2.77,0 -5.17,0 -6.27,-2 c-0.22000000000000006,-0.45 -0.6300000000000002,-1.4100000000000001 -0.6300000000000002,-4.3 a10.55,10.55 0 0 1 0.8500000000000002,-4.67 c1.1400000000000001,-2.07 3.17,-2 5.9,-2 h6.9 V7.989999485015868 H119.4400001001358 c-2.91,0 -6.68,0.3300000000000001 -9,3.37 c-1.84,2.33 -2.25,5.59 -2.25,9.93 c0,5 0.81,7.52 2.36,9.45 c2.11,2.63 4.8,3.18 8.82,3.18 z" id="svg_5"/><path class="cls-1" d="M147.2400001001358,15.17999948501587 l2.66,7.48 h-5.3100000000000005 l2.6500000000000004,-7.48 zM131.7700001001358,33.91999948501588 h8.78 l2,-5.33 h9.3 l2,5.33 h8.77 L153.1400001001358,10.83999948501587 c-1.22,-2.89 -2.55,-3.15 -5.9,-3.15 c-3.67,0 -4.59,0.5800000000000002 -5.9,3.15 z" id="svg_6"/><path class="cls-3" d="M101.5500001001358,0.019999485015869567 l-2,5.59 a1.3800000000000001,1.3800000000000001 0 0 1 -1.17,0.8400000000000002 H91.0200001001358 c-0.46,0 -0.6900000000000004,-0.3800000000000001 -0.51,-0.8400000000000002 l2.05,-5.61 z" id="svg_7"/><path class="cls-3" d="M106.7700001001358,33.91999948501588 v-6.3 H92.2200001001358 V23.53999948501587 h14.09 V17.87999948501587 H92.2200001001358 v-3.6 h14.46 v-6.3 H88.1300001001358 a4.52,4.52 0 0 0 -3.14,1 a3.71,3.71 0 0 0 -1.1,3 V29.769999485015866 a3.6,3.6 0 0 0 1.18,3.26 a4.5,4.5 0 0 0 3.13,0.8900000000000002 z" id="svg_8"/><rect class="cls-2" x="163.94999277591705" y="28.159998416900635" width="6.329999923706055" height="5.760000228881836" id="svg_9"/><path class="cls-1" d="M171.8900001001358,13.04999948501587 a5.43,5.43 0 0 1 1,-3.6900000000000004 a4.66,4.66 0 0 1 3.47,-1.25 h14 c1.62,0 3.7,0 5.39,2.51 a10.83,10.83 0 0 1 1.33,5.9 a18.33,18.33 0 0 1 -1,6.34 a4.92,4.92 0 0 1 -4.79,3.21 h-0.3500000000000001 l6.62,7.85 h-9.27 l-5.47,-7.75 l-2.67,0.08000000000000003 v-6 h6.45 a2.94,2.94 0 0 0 2.3200000000000003,-0.77 a3.93,3.93 0 0 0 0.55,-2.14 a3,3 0 0 0 -0.6300000000000002,-2.18 a3,3 0 0 0 -2.3200000000000003,-0.6200000000000002 h-4.6 a1.6500000000000004,1.6500000000000004 0 0 0 -1.29,0.4 a1.87,1.87 0 0 0 -0.4800000000000001,1.62 V33.91999948501588 h-8.33 z" id="svg_10"/><path class="cls-1" d="M208.9500001001358,7.8199994850158685 V22.63999948501587 a4.39,4.39 0 0 0 1.29,3.6500000000000004 a5.92,5.92 0 0 0 6.34,0 a4.43,4.43 0 0 0 1.29,-3.6500000000000004 V7.8199994850158685 h8.33 V23.29999948501587 c0,2.62 -0.4100000000000001,5.46 -2.6900000000000004,7.71 c-2.66,2.62 -6.42,2.91 -10.1,2.91 s-7.45,-0.2900000000000001 -10.1,-2.91 c-2.29,-2.25 -2.6900000000000004,-5.09 -2.6900000000000004,-7.71 V7.8199994850158685 z" id="svg_11"/></g></svg>