<svg xmlns="http://www.w3.org/2000/svg" viewBox="0 0 148.02 22.17">
  <defs>
    <style>
      .cls-1, .cls-2 {
        fill: #c6c6c6;
      }

      .cls-1 {
        fill-rule: evenodd;
      }
    </style>
  </defs>
  <g id="logo-grey" transform="translate(-1.33 -1.09)">
    <path id="Path_616" data-name="Path 616" class="cls-1" d="M34.57,7.81c-1.79-1.66-4.78-1.73-7.31-1.73S21.74,6.15,20,7.81s-1.89,4.6-1.89,6.86.07,5.16,1.89,6.86,4.82,1.73,7.31,1.73,5.54-.08,7.31-1.73,1.89-4.65,1.89-6.86S36.38,9.49,34.57,7.81ZM30.29,17.93c-.74,1.1-1.62,1.22-3,1.22s-2.32-.12-3-1.22a5.67,5.67,0,0,1-.62-3.19,5.27,5.27,0,0,1,.62-3.19c.72-1.11,1.65-1.23,3-1.23s2.29.12,3,1.23c.65.93.62,1.72.62,3.19A5.22,5.22,0,0,1,30.29,17.93Z"/>
    <path id="Path_617" data-name="Path 617" class="cls-1" d="M18.92,6.34H12.51L6.73,13.72V6.34H1.33V23.13h5.4V15.31l6.57,7.82h6.5l-7.78-8.61Z"/>
    <path id="Path_618" data-name="Path 618" class="cls-1" d="M45.47,6.15c-1.56,0-2.92.1-3.61,1.73L35.43,23.13h5.74l4.3-11.44,4.3,11.44H55.5L49.08,7.88C48.38,6.25,47,6.15,45.47,6.15Z"/>
    <path id="Path_619" data-name="Path 619" class="cls-1" d="M77.34,17.64a6.1,6.1,0,0,1-.4-2.78,7,7,0,0,1,.54-3c.74-1.34,2.06-1.32,3.83-1.32h4.47V6.34H78.7c-1.88,0-4.32.22-5.85,2.18C71.66,10,71.39,12.15,71.39,15c0,3.22.53,4.87,1.53,6.12,1.36,1.7,3.11,2.06,5.71,2.06H86V19H81.4C79.61,19,78.06,19,77.34,17.64Z"/>
    <path id="Path_620" data-name="Path 620" class="cls-1" d="M96.22,6.15c-2.38,0-3,.37-3.82,2L86.21,23.13H91.9l1.31-3.45h6l1.31,3.45h5.69L100,8.19C99.25,6.32,98.39,6.15,96.22,6.15ZM94.5,15.84,96.22,11l1.72,4.85Z"/>
    <path id="Path_621" data-name="Path 621" class="cls-1" d="M60.32,5.25h4.73a.91.91,0,0,0,.76-.55l1.32-3.61H61.31L60,4.7C59.87,5,60,5.25,60.32,5.25Z"/>
    <path id="Path_622" data-name="Path 622" class="cls-1" d="M61.07,16.39H70.2V12.75H61.07V10.42h9.37V6.34h-12a2.93,2.93,0,0,0-2,.67,2.42,2.42,0,0,0-.72,1.92V20.44a2.33,2.33,0,0,0,.77,2.12,3,3,0,0,0,2,.57h12V19.05H61.07Z"/>
    <rect id="Rectangle_2687" data-name="Rectangle 2687" class="cls-2" width="4.73" height="4.3" transform="translate(107.53 18.64)"/>
    <path id="Path_623" data-name="Path 623" class="cls-1" d="M127,17.86h.71a3.21,3.21,0,0,0,3.11-2.08,12,12,0,0,0,.62-4.11,7.12,7.12,0,0,0-.86-3.82c-1.1-1.62-2.94-1.62-4-1.62h-9.1a3,3,0,0,0-2.24.81,3.48,3.48,0,0,0-.64,2.39V22.94H120V11.7a1.22,1.22,0,0,1,.31-1,1.09,1.09,0,0,1,.84-.27h3a1.94,1.94,0,0,1,1.51.41,1.94,1.94,0,0,1,.4,1.41,2.42,2.42,0,0,1-.36,1.38,1.87,1.87,0,0,1-1.5.5h-.86c-1.38,0-2.41.77-2.41,1.89v.36a4.22,4.22,0,0,0,1.15,2.27l3.22,4.34h6.49L127,18Z"/>
    <path id="Path_624" data-name="Path 624" class="cls-1" d="M143.94,6.23v9.6a2.88,2.88,0,0,1-.84,2.36,3.8,3.8,0,0,1-4.1,0,2.84,2.84,0,0,1-.84-2.36V6.23h-5.39v10a6.59,6.59,0,0,0,1.74,5c1.72,1.69,4.15,1.88,6.54,1.88s4.82-.19,6.54-1.88a6.59,6.59,0,0,0,1.74-5v-10Z"/>
  </g>
</svg>
